<svg width="257" height="104" viewBox="0 0 257 104" fill="none" xmlns="http://www.w3.org/2000/svg">
<g clip-path="url(#clip0_43_19)">
<path d="M0 79.976V72.0269H7.97774V63.9843H15.8626V56.0352H23.7475V48.0861H15.8626V40.0435H7.97774V32.0944H0V24.1453H7.97774V32.0944H15.8626V40.0435H23.7475V48.0861H31.7253V56.0352H23.7475V63.9843H15.8626V72.0269H7.97774V79.976H0Z" fill="white"/>
<path d="M166.618 16.1027H206.228V24.1453H198.343V32.0944H190.365V24.1453H166.618V16.1027ZM174.596 63.9843V72.0269H206.228V79.976H166.618V63.9843H174.596ZM182.48 48.0861V63.9843H174.596V48.0861H182.48ZM190.365 32.0944V48.0861H182.48V32.0944H190.365Z" fill="white"/>
<path d="M249.115 80.021V56.0802H225.368V80.021H217.39V24.1904H225.368V48.1312H249.115V24.1904H225.368V16.1477H249.115V24.1904H257V80.021H249.115Z" fill="white"/>
<path d="M43.1348 15.9813H74.8291V24.0413H51.1056V39.9776H74.8291V48.0376H82.7071V72.0339H74.8291V80.0003H43.1348V15.9813ZM74.8291 48.0411H51.1056V72.0373H74.8291V48.0411Z" fill="white"/>
<path d="M155.507 3.49438H93.869V91.1802H155.507V3.49438Z" fill="white"/>
<path d="M136.598 79.976V56.0352H112.851V79.976H104.873V24.1453H112.851V48.0861H136.598V24.1453H112.851V16.1027H136.598V24.1453H144.483V79.976H136.598Z" fill="black"/>
</g>
<defs>
<clipPath id="clip0_43_19">
<rect width="257" height="104" fill="white"/>
</clipPath>
</defs>
</svg>
